<?xml version="1.0" standalone="no"?>
<!DOCTYPE svg PUBLIC "-//W3C//DTD SVG 20010904//EN"
 "http://www.w3.org/TR/2001/REC-SVG-20010904/DTD/svg10.dtd">
<svg version="1.0" xmlns="http://www.w3.org/2000/svg"
 width="276.000000pt" height="365.000000pt" viewBox="0 0 276.000000 365.000000"
 preserveAspectRatio="xMidYMid meet">

<g transform="translate(0.000000,365.000000) scale(0.100000,-0.100000)"
fill="#000000" stroke="none">
<path d="M1327 3572 c-15 -10 -79 -68 -143 -128 -122 -115 -269 -253 -393
-369 -41 -38 -114 -106 -161 -150 -47 -45 -121 -114 -164 -155 -154 -144 -206
-199 -206 -215 0 -9 11 -27 26 -41 29 -30 63 -27 103 9 25 23 240 229 326 312
29 28 112 106 185 175 184 173 310 293 391 373 38 37 74 67 79 67 5 0 47 -39
94 -87 55 -58 97 -92 120 -99 33 -10 35 -10 40 15 12 63 2 93 -49 150 -48 55
-126 123 -169 148 -29 17 -47 16 -79 -5z"/>
<path d="M1872 3387 c-6 -6 -17 -32 -26 -57 -19 -54 -22 -270 -5 -303 15 -27
462 -470 513 -508 44 -33 71 -36 104 -13 47 33 34 51 -200 283 l-223 219 -3
149 c-3 177 -4 185 -40 218 -30 28 -101 35 -120 12z"/>
<path d="M1237 2886 c-167 -48 -307 -173 -367 -327 -28 -70 -38 -234 -20 -310
35 -149 134 -276 272 -349 74 -40 138 -55 245 -59 230 -8 434 133 508 352 14
43 24 81 21 85 -3 5 -1 27 5 49 9 44 -13 209 -31 227 -6 6 -10 17 -10 25 0 23
-60 112 -106 157 -73 72 -156 122 -239 143 -71 18 -225 22 -278 7z"/>
<path d="M478 2299 c-44 -11 -119 -51 -175 -92 -55 -39 -103 -114 -103 -160 0
-36 36 -133 70 -188 16 -27 30 -52 30 -55 0 -3 19 -38 43 -77 24 -40 46 -80
50 -90 3 -9 64 -119 133 -245 70 -125 147 -263 172 -307 24 -44 64 -113 88
-152 24 -40 44 -75 44 -78 0 -2 16 -29 35 -59 19 -30 35 -58 35 -62 0 -3 29
-54 63 -113 35 -58 101 -170 147 -249 46 -79 99 -160 117 -181 45 -53 102 -81
163 -81 46 0 54 4 93 43 23 24 54 61 68 83 61 91 177 285 242 404 22 41 55 98
72 125 17 28 36 61 43 75 12 25 21 41 53 90 9 14 32 54 51 90 19 36 47 84 61
107 15 24 27 46 27 49 0 4 20 41 44 83 24 42 59 105 79 141 19 36 64 118 101
183 36 65 66 120 66 122 0 2 22 41 49 88 50 88 101 203 101 232 0 114 -106
220 -266 268 l-52 15 -4 -86 c-8 -153 -95 -319 -246 -470 -56 -56 -202 -162
-223 -162 -5 0 -32 -11 -61 -24 -84 -39 -124 -47 -271 -53 -111 -5 -155 -2
-225 12 -151 31 -312 117 -419 222 -143 141 -231 305 -256 478 l-12 81 -27 -7z"/>
</g>
</svg>
